<?xml version="1.0" encoding="UTF-8"?>
<svg id="Layer_1" data-name="Layer 1" xmlns="http://www.w3.org/2000/svg" viewBox="0 0 513.96 143.56">
	<defs>
		<style>
			.cls-1 {
			fill: #073c3d;
			}

			.cls-2 {
			fill: #16e399;
			}
		</style>
	</defs>
	<g>
		<path class="cls-1"
			d="m110.81,14.29c0,1.51-1.23,2.74-2.75,2.74h-61.76v44.37c0,1.52-1.23,2.75-2.75,2.75s-2.74-1.23-2.74-2.75V14.29c0-1.52,1.23-2.75,2.74-2.75h64.51c.18,0,.36.03.52.05.08.01.15.05.23.06.12.03.22.08.32.1.14.06.28.14.41.23.03,0,.04.01.05.03.14.12.27.2.38.32l.2.2c.4.49.63,1.1.63,1.75Z" />
		<path class="cls-1"
			d="m135.16,38.31v90.95c0,1.51-1.23,2.75-2.75,2.75H43.55c-1.51,0-2.74-1.24-2.74-2.75v-23.07c0-1.52,1.23-2.76,2.74-2.76s2.75,1.24,2.75,2.76v20.34h83.38V38.31c0-1.52,1.23-2.75,2.74-2.75.67,0,1.27.24,1.75.64l.18.17h.01c.13.13.24.27.33.41.15.23.27.47.35.73.09.26.13.54.13.81Z" />
		<path class="cls-1"
			d="m135.04,37.51c-.08-.26-.19-.5-.35-.73-.09-.14-.2-.28-.33-.41h-.01l-.18-.17-23.98-23.66-.2-.2c-.12-.12-.24-.2-.38-.32-.01-.01-.03-.03-.05-.03-.13-.09-.27-.17-.41-.23-.1-.03-.2-.08-.32-.1-.08-.01-.15-.05-.23-.06-.17-.03-.35-.05-.52-.05-.36,0-.72.08-1.06.22-1.02.42-1.69,1.42-1.69,2.53v24.02c0,1.51,1.23,2.74,2.75,2.74h24.35c1.11,0,2.11-.67,2.53-1.7.24-.59.27-1.25.09-1.84Zm-24.24-1.93v-14.73l14.92,14.73h-14.92Z" />
		<path class="cls-1"
			d="m113.65,58.68h-51.34c-1.51,0-2.74,1.22-2.74,2.74v44.77c0,1.52,1.23,2.74,2.74,2.74h51.34c1.52,0,2.75-1.22,2.75-2.74v-44.77c0-1.52-1.23-2.74-2.75-2.74Zm-2.74,44.75h-45.87v-39.28h45.87v39.28Z" />
		<path class="cls-1"
			d="m90.73,61.41v44.77c0,1.51-1.23,2.74-2.75,2.74s-2.74-1.23-2.74-2.74v-44.77c0-1.43,1.07-2.6,2.46-2.74.09-.01.19-.01.28-.01s.19,0,.28.01c1.39.14,2.47,1.31,2.47,2.74Z" />
		<path class="cls-1"
			d="m113.65,79.08h-51.34c-1.52,0-2.74-1.23-2.74-2.74s1.23-2.74,2.74-2.74h51.34c1.52,0,2.74,1.23,2.74,2.74s-1.23,2.74-2.74,2.74Z" />
		<path class="cls-1"
			d="m113.65,94h-51.34c-1.52,0-2.74-1.23-2.74-2.74s1.23-2.74,2.74-2.74h51.34c1.52,0,2.74,1.23,2.74,2.74s-1.23,2.74-2.74,2.74Z" />
		<path class="cls-1"
			d="m71.38,61.4c0,1.52-1.23,2.75-2.75,2.75H22.75c-1.52,0-2.75-1.23-2.75-2.75s1.23-2.73,2.75-2.73h45.88c1.52,0,2.75,1.22,2.75,2.73Z" />
		<path class="cls-1"
			d="m73.87,79.08H13.29c-1.52,0-2.74-1.23-2.74-2.74s1.23-2.74,2.74-2.74h60.58c1.52,0,2.74,1.23,2.74,2.74s-1.23,2.74-2.74,2.74Z" />
		<path class="cls-1"
			d="m84.31,94h-49.6c-1.52,0-2.74-1.23-2.74-2.74s1.23-2.74,2.74-2.74h49.6c1.52,0,2.74,1.23,2.74,2.74s-1.23,2.74-2.74,2.74Z" />
		<path class="cls-2"
			d="m129.67,41.05v85.47H46.3v-17.61h67.35c1.52,0,2.75-1.22,2.75-2.74v-44.77c0-1.52-1.23-2.74-2.75-2.74h-25.39c-.09-.01-.19-.01-.28-.01s-.19,0-.28.01h-41.4V17.03h59.01v21.28c0,1.51,1.23,2.74,2.75,2.74h21.61Z" />
		<path class="cls-1"
			d="m76.62,106.19c0,1.51-1.23,2.73-2.75,2.73H24.94c-1.51,0-2.74-1.22-2.74-2.73s1.23-2.76,2.74-2.76h48.92c1.52,0,2.75,1.24,2.75,2.76Z" />
		<path class="cls-1"
			d="m23.79,94h-4.68c-1.52,0-2.74-1.23-2.74-2.74s1.23-2.74,2.74-2.74h4.68c1.52,0,2.74,1.23,2.74,2.74s-1.23,2.74-2.74,2.74Z" />
		<path class="cls-1"
			d="m11.64,64.15h-4.19c-1.52,0-2.74-1.23-2.74-2.74s1.23-2.74,2.74-2.74h4.19c1.52,0,2.74,1.23,2.74,2.74s-1.23,2.74-2.74,2.74Z" />
	</g>
	<g>
		<path class="cls-1"
			d="m156.41,100.4l5.32-5.99c4.94,5.23,11.97,8.65,19.19,8.65,9.12,0,14.63-4.56,14.63-11.4s-5.04-9.41-11.59-12.35l-10.07-4.37c-6.46-2.76-14.16-7.7-14.16-17.86,0-10.74,9.31-18.53,21.95-18.53,8.27,0,15.58,3.51,20.52,8.64l-4.66,5.61c-4.27-3.99-9.41-6.55-15.87-6.55-7.89,0-13.02,3.99-13.02,10.26,0,6.75,6.08,9.31,11.5,11.59l9.98,4.28c8.08,3.51,14.35,8.27,14.35,18.62,0,11.02-9.12,19.76-23.66,19.76-9.88,0-18.34-3.99-24.42-10.36Z" />
		<path class="cls-1"
			d="m217.4,33.9h8.65v20.71l-.29,10.64c4.75-4.75,10.07-8.65,17.1-8.65,10.83,0,15.77,7.03,15.77,20.24v32.68h-8.64v-31.54c0-9.69-2.95-13.78-9.79-13.78-5.32,0-8.93,2.66-14.16,7.88v37.43h-8.65V33.9Z" />
		<path class="cls-1"
			d="m271.17,83.77c0-16.72,11.31-27.17,23.28-27.17,13.11,0,20.52,9.5,20.52,24.23,0,1.9-.19,3.71-.38,4.94h-34.77c.57,11.02,7.32,18.05,17.1,18.05,5.03,0,9.12-1.52,12.92-4.08l3.13,5.7c-4.56,2.95-10.07,5.32-17.1,5.32-13.68,0-24.7-9.98-24.7-26.98Zm36.2-4.28c0-10.36-4.75-15.96-12.82-15.96-7.32,0-13.78,5.89-14.82,15.96h27.64Z" />
		<path class="cls-1"
			d="m323.8,83.77c0-16.72,11.31-27.17,23.28-27.17,13.11,0,20.52,9.5,20.52,24.23,0,1.9-.19,3.71-.38,4.94h-34.77c.57,11.02,7.32,18.05,17.1,18.05,5.03,0,9.12-1.52,12.92-4.08l3.13,5.7c-4.56,2.95-10.07,5.32-17.1,5.32-13.68,0-24.7-9.98-24.7-26.98Zm36.2-4.28c0-10.36-4.75-15.96-12.82-15.96-7.32,0-13.78,5.89-14.82,15.96h27.64Z" />
		<path class="cls-1"
			d="m380.8,93.56v-28.6h-7.69v-6.55l8.08-.48,1.04-14.54h7.22v14.54h13.96v7.03h-13.96v28.79c0,6.37,2,9.98,7.98,9.98,1.8,0,4.18-.67,5.89-1.33l1.71,6.46c-2.95.95-6.37,1.9-9.5,1.9-11.02,0-14.73-6.94-14.73-17.2Z" />
		<path class="cls-1"
			d="m409.58,96.12c0-11.21,9.79-16.81,31.73-19.29,0-6.65-2.18-13.01-10.64-13.01-5.99,0-11.4,2.75-15.49,5.51l-3.42-5.99c4.75-3.04,12.07-6.75,20.33-6.75,12.54,0,17.86,8.46,17.86,21.19v31.73h-7.12l-.76-6.17h-.29c-4.94,4.08-10.74,7.41-17.1,7.41-8.65,0-15.11-5.32-15.11-14.63Zm31.73.86v-14.44c-17.38,2.09-23.28,6.37-23.28,13.02,0,5.89,3.99,8.26,9.12,8.26s9.12-2.38,14.16-6.84Z" />
		<path class="cls-1"
			d="m466.39,33.9h8.64v20.71l-.28,10.64c4.75-4.75,10.07-8.65,17.1-8.65,10.83,0,15.77,7.03,15.77,20.24v32.68h-8.65v-31.54c0-9.69-2.94-13.78-9.79-13.78-5.32,0-8.93,2.66-14.16,7.88v37.43h-8.64V33.9Z" />
	</g>
</svg>